<?xml version="1.0" encoding="utf-8"?>
<!-- Generator: Adobe Illustrator 19.0.1, SVG Export Plug-In . SVG Version: 6.00 Build 0)  -->
<svg version="1.1" id="Layer_1" xmlns="http://www.w3.org/2000/svg" xmlns:xlink="http://www.w3.org/1999/xlink" x="0px" y="0px"
	 width="1088px" height="401px" viewBox="0 0 1088 401" style="enable-background:new 0 0 1088 401;" xml:space="preserve">
<style type="text/css">
	.st0{display:none;clip-path:url(#SVGID_2_);}
	.st1{clip-path:url(#SVGID_2_);}
	.st2{display:none;}
	.st3{display:inline;fill:#FFFFFF;}
	.st4{display:none;clip-path:url(#SVGID_2_);fill:#FFFFFF;}
	.st5{display:none;clip-path:url(#SVGID_2_);fill:none;stroke:#FFFFFF;stroke-miterlimit:10;}
	.st6{display:none;clip-path:url(#SVGID_2_);fill:none;stroke:#666666;stroke-miterlimit:10;}
	.st7{display:inline;}
	.st8{display:inline;clip-path:url(#SVGID_4_);fill:none;stroke:#666666;stroke-miterlimit:10;}
	.st9{display:inline;fill:#E3E3E3;}
	.st10{opacity:0.9;clip-path:url(#SVGID_6_);}
	.st11{clip-path:url(#SVGID_8_);fill:#191919;}
	.st12{clip-path:url(#SVGID_10_);fill:#191919;}
	.st13{clip-path:url(#SVGID_2_);fill:none;stroke:#4D4D4D;stroke-miterlimit:10;}
	.st14{fill:#4D4D4D;}
	.st15{clip-path:url(#SVGID_12_);fill:none;stroke:#F8AD3B;stroke-width:2;stroke-linecap:round;stroke-miterlimit:10;}
	.st16{clip-path:url(#SVGID_12_);fill:#4D4D4D;}
	.st17{fill:#FFFFFF;}
	.st18{clip-path:url(#SVGID_14_);fill:#4D4D4D;}
	.st19{clip-path:url(#SVGID_14_);fill:none;stroke:#FFFFFF;stroke-width:3;stroke-miterlimit:10;}
	.st20{display:inline;fill:#808080;}
	.st21{display:none;clip-path:url(#SVGID_2_);fill:#808080;}
</style>
<g>
	<defs>
		<rect id="SVGID_1_" x="-228" y="-465.6" width="1598" height="1177.6"/>
	</defs>
	<clipPath id="SVGID_2_">
		<use xlink:href="#SVGID_1_"  style="display:none;overflow:visible;"/>
	</clipPath>
	<rect x="-228" y="-465.6" class="st0" width="1598" height="1177.6"/>
	<g class="st0">
		<defs>
			<rect id="SVGID_3_" x="-228" y="-465.6" width="1598" height="1177.6"/>
		</defs>
		<clipPath id="SVGID_4_" class="st7">
			<use xlink:href="#SVGID_3_"  style="overflow:visible;"/>
		</clipPath>
	</g>
	<g class="st1">
		<defs>
			<rect id="SVGID_5_" x="-228" y="-465.6" width="1598" height="1177.6"/>
		</defs>
		<clipPath id="SVGID_6_">
			<use xlink:href="#SVGID_5_"  style="overflow:visible;"/>
		</clipPath>
		<g class="st10">
			<g>
				<defs>
					<rect id="SVGID_7_" x="59" y="14.7" width="341.2" height="352"/>
				</defs>
				<clipPath id="SVGID_8_">
					<use xlink:href="#SVGID_7_"  style="overflow:visible;"/>
				</clipPath>
				<rect x="59" y="14.7" class="st11" width="341.2" height="352"/>
			</g>
		</g>
		<g class="st10">
			<g>
				<defs>
					<rect id="SVGID_9_" x="741.5" y="14.7" width="341.2" height="352"/>
				</defs>
				<clipPath id="SVGID_10_">
					<use xlink:href="#SVGID_9_"  style="overflow:visible;"/>
				</clipPath>
				<rect x="741.5" y="14.7" class="st12" width="341.2" height="352"/>
			</g>
		</g>
	</g>
	<line class="st13" x1="59" y1="14.7" x2="1083" y2="14.7"/>
	<line class="st13" x1="1083" y1="366.7" x2="59" y2="366.7"/>
	<g class="st1">
		<path class="st14" d="M25.2,19.6L22.9,11l-2.4,8.6h-1.4L16,8.9h1.5l2.4,8.9l2.4-8.9h1.1l2.4,8.9l2.4-8.9h1.5l-3,10.7H25.2z"/>
		<path class="st14" d="M30,15.8c0-2.2,1.6-4,3.8-4c2.3,0,3.7,1.8,3.7,4.1v0.3h-6.3c0.1,1.5,1.1,2.7,2.8,2.7c0.9,0,1.8-0.4,2.4-1
			l0.6,0.8c-0.8,0.8-1.8,1.2-3.1,1.2C31.7,19.8,30,18.2,30,15.8z M33.8,12.7c-1.6,0-2.5,1.4-2.5,2.6h5.1
			C36.4,14.1,35.6,12.7,33.8,12.7z"/>
		<path class="st14" d="M39.7,18V13h-1.3v-1.1h1.3V9.8h1.2v2.1h1.6V13h-1.6v4.8c0,0.6,0.3,1,0.8,1c0.3,0,0.7-0.1,0.8-0.3l0.4,0.9
			c-0.3,0.3-0.7,0.5-1.4,0.5C40.3,19.8,39.7,19.2,39.7,18z"/>
	</g>
	<g class="st1">
		<path class="st14" d="M140.2,395.6V385h3.6c3.3,0,5.5,2.3,5.5,5.3c0,3-2.2,5.3-5.5,5.3H140.2z M147.9,390.3c0-2.3-1.5-4.2-4.1-4.2
			h-2.3v8.3h2.3C146.4,394.5,147.9,392.6,147.9,390.3z"/>
		<path class="st14" d="M150.9,391.8c0-2.2,1.6-4,3.8-4c2.3,0,3.7,1.8,3.7,4.1v0.3h-6.3c0.1,1.5,1.1,2.7,2.8,2.7
			c0.9,0,1.8-0.4,2.4-1l0.6,0.8c-0.8,0.8-1.8,1.2-3.1,1.2C152.5,395.8,150.9,394.2,150.9,391.8z M154.7,388.7
			c-1.6,0-2.5,1.4-2.5,2.6h5.1C157.2,390.1,156.4,388.7,154.7,388.7z"/>
		<path class="st14" d="M160.3,395.6V385h1.2v4.1c0.6-0.8,1.6-1.4,2.6-1.4c2,0,3.4,1.6,3.4,4.1c0,2.5-1.4,4-3.4,4
			c-1.1,0-2-0.6-2.6-1.3v1.2H160.3z M163.8,394.8c1.6,0,2.5-1.3,2.5-3s-0.9-3-2.5-3c-0.9,0-1.9,0.6-2.3,1.2v3.5
			C161.9,394.2,162.9,394.8,163.8,394.8z"/>
		<path class="st14" d="M169.5,395.6v-7.7h1.2v1.2c0.6-0.8,1.5-1.4,2.6-1.4v1.2c-0.1,0-0.3,0-0.5,0c-0.7,0-1.7,0.6-2.1,1.2v5.5
			H169.5z"/>
		<path class="st14" d="M174.6,386c0-0.4,0.4-0.8,0.8-0.8c0.4,0,0.8,0.4,0.8,0.8s-0.4,0.8-0.8,0.8C175,386.8,174.6,386.5,174.6,386z
			 M174.8,395.6v-7.7h1.2v7.7H174.8z"/>
		<path class="st14" d="M184,395.6v-1.2c-0.6,0.8-1.5,1.3-2.6,1.3c-2,0-3.4-1.5-3.4-4c0-2.5,1.4-4.1,3.4-4.1c1,0,2,0.5,2.6,1.4V385
			h1.2v10.7H184z M184,393.5V390c-0.4-0.7-1.4-1.2-2.3-1.2c-1.6,0-2.5,1.3-2.5,3s0.9,3,2.5,3C182.7,394.8,183.6,394.2,184,393.5z"/>
		<path class="st14" d="M187.2,391.8c0-2.2,1.6-4,3.8-4c2.3,0,3.7,1.8,3.7,4.1v0.3h-6.3c0.1,1.5,1.1,2.7,2.8,2.7
			c0.9,0,1.8-0.4,2.4-1l0.6,0.8c-0.8,0.8-1.8,1.2-3.1,1.2C188.8,395.8,187.2,394.2,187.2,391.8z M191,388.7c-1.6,0-2.5,1.4-2.5,2.6
			h5.1C193.5,390.1,192.7,388.7,191,388.7z"/>
		<path class="st14" d="M206.3,395.6v-1.2c-0.6,0.8-1.5,1.3-2.6,1.3c-2,0-3.4-1.5-3.4-4c0-2.5,1.4-4.1,3.4-4.1c1,0,2,0.5,2.6,1.4
			V385h1.2v10.7H206.3z M206.3,393.5V390c-0.4-0.7-1.4-1.2-2.3-1.2c-1.6,0-2.5,1.3-2.5,3s0.9,3,2.5,3
			C205,394.8,205.9,394.2,206.3,393.5z"/>
		<path class="st14" d="M209.5,391.8c0-2.2,1.6-4,3.8-4c2.3,0,3.7,1.8,3.7,4.1v0.3h-6.3c0.1,1.5,1.1,2.7,2.8,2.7
			c0.9,0,1.8-0.4,2.4-1l0.6,0.8c-0.8,0.8-1.8,1.2-3.1,1.2C211.1,395.8,209.5,394.2,209.5,391.8z M213.3,388.7
			c-1.6,0-2.5,1.4-2.5,2.6h5.1C215.8,390.1,215.1,388.7,213.3,388.7z"/>
		<path class="st14" d="M221,395.6l-3.2-7.7h1.3l2.6,6.3l2.6-6.3h1.3l-3.2,7.7H221z"/>
		<path class="st14" d="M226.6,386c0-0.4,0.4-0.8,0.8-0.8c0.4,0,0.8,0.4,0.8,0.8s-0.4,0.8-0.8,0.8C227,386.8,226.6,386.5,226.6,386z
			 M226.8,395.6v-7.7h1.2v7.7H226.8z"/>
		<path class="st14" d="M230.6,394V389h-1.3v-1.1h1.3v-2.1h1.2v2.1h1.6v1.1h-1.6v4.8c0,0.6,0.3,1,0.8,1c0.3,0,0.7-0.1,0.8-0.3
			l0.4,0.9c-0.3,0.3-0.7,0.5-1.4,0.5C231.2,395.8,230.6,395.2,230.6,394z"/>
		<path class="st14" d="M239.9,395.6v-0.9c-0.6,0.7-1.5,1.1-2.6,1.1c-1.3,0-2.7-0.9-2.7-2.6c0-1.7,1.4-2.5,2.7-2.5
			c1.1,0,1.9,0.3,2.6,1.1v-1.4c0-1-0.8-1.6-2-1.6c-0.9,0-1.7,0.3-2.4,1.1L235,389c0.8-0.9,1.8-1.3,3.1-1.3c1.6,0,3,0.7,3,2.6v5.3
			H239.9z M239.9,394v-1.5c-0.5-0.6-1.3-1-2.1-1c-1.1,0-1.9,0.7-1.9,1.7c0,1,0.8,1.7,1.9,1.7C238.7,395,239.5,394.6,239.9,394z"/>
		<path class="st14" d="M243.5,395.6V385h1.2v10.7H243.5z"/>
		<path class="st14" d="M246.9,386c0-0.4,0.4-0.8,0.8-0.8c0.4,0,0.8,0.4,0.8,0.8s-0.4,0.8-0.8,0.8
			C247.3,386.8,246.9,386.5,246.9,386z M247.1,395.6v-7.7h1.2v7.7H247.1z"/>
		<path class="st14" d="M250.1,394.6l0.6-0.9c0.5,0.6,1.5,1.1,2.5,1.1c1.2,0,1.8-0.6,1.8-1.3c0-0.8-0.9-1.1-2-1.3
			c-1.3-0.3-2.8-0.7-2.8-2.3c0-1.2,1-2.2,2.9-2.2c1.3,0,2.2,0.5,2.9,1.1l-0.6,0.8c-0.5-0.6-1.3-1-2.3-1c-1.1,0-1.7,0.5-1.7,1.2
			c0,0.7,0.9,0.9,1.9,1.2c1.3,0.3,2.9,0.7,2.9,2.4c0,1.3-1,2.3-3,2.3C251.9,395.8,250.8,395.4,250.1,394.6z"/>
		<path class="st14" d="M257.7,391.8c0-2.2,1.6-4,3.8-4c2.3,0,3.7,1.8,3.7,4.1v0.3H259c0.1,1.5,1.1,2.7,2.8,2.7c0.9,0,1.8-0.4,2.4-1
			l0.6,0.8c-0.8,0.8-1.8,1.2-3.1,1.2C259.4,395.8,257.7,394.2,257.7,391.8z M261.5,388.7c-1.6,0-2.5,1.4-2.5,2.6h5.1
			C264,390.1,263.3,388.7,261.5,388.7z"/>
		<path class="st14" d="M272.8,395.6v-1.2c-0.6,0.8-1.5,1.3-2.6,1.3c-2,0-3.4-1.5-3.4-4c0-2.5,1.4-4.1,3.4-4.1c1,0,2,0.5,2.6,1.4
			V385h1.2v10.7H272.8z M272.8,393.5V390c-0.4-0.7-1.4-1.2-2.3-1.2c-1.6,0-2.5,1.3-2.5,3s0.9,3,2.5,3
			C271.4,394.8,272.3,394.2,272.8,393.5z"/>
		<path class="st14" d="M280.7,394V389h-1.3v-1.1h1.3v-2.1h1.2v2.1h1.6v1.1h-1.6v4.8c0,0.6,0.3,1,0.8,1c0.3,0,0.7-0.1,0.8-0.3
			l0.4,0.9c-0.3,0.3-0.7,0.5-1.4,0.5C281.3,395.8,280.7,395.2,280.7,394z"/>
		<path class="st14" d="M285,386c0-0.4,0.4-0.8,0.8-0.8c0.4,0,0.8,0.4,0.8,0.8s-0.4,0.8-0.8,0.8C285.4,386.8,285,386.5,285,386z
			 M285.2,395.6v-7.7h1.2v7.7H285.2z"/>
		<path class="st14" d="M288.1,394.6l0.6-0.9c0.5,0.6,1.5,1.1,2.5,1.1c1.2,0,1.8-0.6,1.8-1.3c0-0.8-0.9-1.1-2-1.3
			c-1.3-0.3-2.8-0.7-2.8-2.3c0-1.2,1-2.2,2.9-2.2c1.3,0,2.2,0.5,2.9,1.1l-0.6,0.8c-0.5-0.6-1.3-1-2.3-1c-1.1,0-1.7,0.5-1.7,1.2
			c0,0.7,0.9,0.9,1.9,1.2c1.3,0.3,2.9,0.7,2.9,2.4c0,1.3-1,2.3-3,2.3C290,395.8,288.9,395.4,288.1,394.6z"/>
		<path class="st14" d="M295.6,394.6l0.6-0.9c0.5,0.6,1.5,1.1,2.5,1.1c1.2,0,1.8-0.6,1.8-1.3c0-0.8-0.9-1.1-2-1.3
			c-1.3-0.3-2.8-0.7-2.8-2.3c0-1.2,1-2.2,2.9-2.2c1.3,0,2.2,0.5,2.9,1.1l-0.6,0.8c-0.5-0.6-1.3-1-2.3-1c-1.1,0-1.7,0.5-1.7,1.2
			c0,0.7,0.9,0.9,1.9,1.2c1.3,0.3,2.9,0.7,2.9,2.4c0,1.3-1,2.3-3,2.3C297.4,395.8,296.4,395.4,295.6,394.6z"/>
		<path class="st14" d="M308.9,395.6v-1.1c-0.6,0.7-1.6,1.3-2.8,1.3c-1.6,0-2.5-0.8-2.5-2.5v-5.5h1.2v5.1c0,1.4,0.7,1.8,1.7,1.8
			c0.9,0,1.8-0.5,2.3-1.2v-5.7h1.2v7.7H308.9z"/>
		<path class="st14" d="M312.1,391.8c0-2.2,1.6-4,3.8-4c2.3,0,3.7,1.8,3.7,4.1v0.3h-6.3c0.1,1.5,1.1,2.7,2.8,2.7
			c0.9,0,1.8-0.4,2.4-1l0.6,0.8c-0.8,0.8-1.8,1.2-3.1,1.2C313.7,395.8,312.1,394.2,312.1,391.8z M315.8,388.7
			c-1.6,0-2.5,1.4-2.5,2.6h5.1C318.4,390.1,317.6,388.7,315.8,388.7z"/>
	</g>
	<g class="st1">
		<path class="st14" d="M477.3,395.6v-8.8l-3.6,8.8h-0.5l-3.6-8.8v8.8h-1.3V385h1.9l3.3,8l3.3-8h1.9v10.7H477.3z"/>
		<path class="st14" d="M485.9,395.6v-0.9c-0.6,0.7-1.5,1.1-2.6,1.1c-1.3,0-2.7-0.9-2.7-2.6c0-1.7,1.4-2.5,2.7-2.5
			c1.1,0,1.9,0.3,2.6,1.1v-1.4c0-1-0.8-1.6-2-1.6c-0.9,0-1.7,0.3-2.4,1.1l-0.6-0.8c0.8-0.9,1.8-1.3,3.1-1.3c1.6,0,3,0.7,3,2.6v5.3
			H485.9z M485.9,394v-1.5c-0.5-0.6-1.3-1-2.1-1c-1.1,0-1.9,0.7-1.9,1.7c0,1,0.8,1.7,1.9,1.7C484.7,395,485.5,394.6,485.9,394z"/>
		<path class="st14" d="M489.3,386c0-0.4,0.4-0.8,0.8-0.8c0.4,0,0.8,0.4,0.8,0.8s-0.4,0.8-0.8,0.8
			C489.7,386.8,489.3,386.5,489.3,386z M489.5,395.6v-7.7h1.2v7.7H489.5z"/>
		<path class="st14" d="M498.3,395.6v-5.1c0-1.4-0.7-1.8-1.7-1.8c-0.9,0-1.8,0.6-2.3,1.2v5.7h-1.2v-7.7h1.2v1.1
			c0.5-0.6,1.6-1.3,2.8-1.3c1.6,0,2.5,0.8,2.5,2.5v5.4H498.3z"/>
		<path class="st14" d="M502.2,394V389h-1.3v-1.1h1.3v-2.1h1.2v2.1h1.6v1.1h-1.6v4.8c0,0.6,0.3,1,0.8,1c0.3,0,0.7-0.1,0.8-0.3
			l0.4,0.9c-0.3,0.3-0.7,0.5-1.4,0.5C502.8,395.8,502.2,395.2,502.2,394z"/>
		<path class="st14" d="M511.5,395.6v-0.9c-0.6,0.7-1.5,1.1-2.6,1.1c-1.3,0-2.7-0.9-2.7-2.6c0-1.7,1.4-2.5,2.7-2.5
			c1.1,0,1.9,0.3,2.6,1.1v-1.4c0-1-0.8-1.6-2-1.6c-0.9,0-1.7,0.3-2.4,1.1l-0.6-0.8c0.8-0.9,1.8-1.3,3.1-1.3c1.6,0,3,0.7,3,2.6v5.3
			H511.5z M511.5,394v-1.5c-0.5-0.6-1.3-1-2.1-1c-1.1,0-1.9,0.7-1.9,1.7c0,1,0.8,1.7,1.9,1.7C510.2,395,511,394.6,511.5,394z"/>
		<path class="st14" d="M514.9,386c0-0.4,0.4-0.8,0.8-0.8c0.4,0,0.8,0.4,0.8,0.8s-0.4,0.8-0.8,0.8
			C515.2,386.8,514.9,386.5,514.9,386z M515.1,395.6v-7.7h1.2v7.7H515.1z"/>
		<path class="st14" d="M523.9,395.6v-5.1c0-1.4-0.7-1.8-1.7-1.8c-0.9,0-1.8,0.6-2.3,1.2v5.7h-1.2v-7.7h1.2v1.1
			c0.5-0.6,1.6-1.3,2.8-1.3c1.6,0,2.5,0.8,2.5,2.5v5.4H523.9z"/>
		<path class="st14" d="M536.5,395.6v-0.9c-0.6,0.7-1.5,1.1-2.6,1.1c-1.3,0-2.7-0.9-2.7-2.6c0-1.7,1.4-2.5,2.7-2.5
			c1.1,0,1.9,0.3,2.6,1.1v-1.4c0-1-0.8-1.6-2-1.6c-0.9,0-1.7,0.3-2.4,1.1l-0.6-0.8c0.8-0.9,1.8-1.3,3.1-1.3c1.6,0,3,0.7,3,2.6v5.3
			H536.5z M536.5,394v-1.5c-0.5-0.6-1.3-1-2.1-1c-1.1,0-1.9,0.7-1.9,1.7c0,1,0.8,1.7,1.9,1.7C535.2,395,536,394.6,536.5,394z"/>
		<path class="st14" d="M553.5,395.6v-5.2c0-1-0.4-1.6-1.4-1.6c-0.8,0-1.6,0.6-2,1.2v5.7h-1.2v-5.2c0-1-0.4-1.6-1.4-1.6
			c-0.8,0-1.6,0.6-2,1.2v5.7h-1.2v-7.7h1.2v1.1c0.3-0.5,1.4-1.3,2.5-1.3c1.2,0,1.9,0.6,2.1,1.4c0.4-0.7,1.5-1.4,2.6-1.4
			c1.4,0,2.2,0.8,2.2,2.3v5.6H553.5z"/>
		<path class="st14" d="M556.7,391.8c0-2.2,1.5-4,3.8-4c2.4,0,3.8,1.8,3.8,4c0,2.2-1.5,4.1-3.8,4.1
			C558.1,395.8,556.7,394,556.7,391.8z M563.1,391.8c0-1.6-0.9-3-2.6-3c-1.6,0-2.6,1.4-2.6,3c0,1.6,0.9,3,2.6,3
			C562.1,394.8,563.1,393.4,563.1,391.8z"/>
		<path class="st14" d="M566.1,386c0-0.4,0.4-0.8,0.8-0.8c0.4,0,0.8,0.4,0.8,0.8s-0.4,0.8-0.8,0.8
			C566.4,386.8,566.1,386.5,566.1,386z M566.3,395.6v-7.7h1.2v7.7H566.3z"/>
		<path class="st14" d="M569.2,394.6l0.6-0.9c0.5,0.6,1.5,1.1,2.5,1.1c1.2,0,1.8-0.6,1.8-1.3c0-0.8-0.9-1.1-2-1.3
			c-1.3-0.3-2.8-0.7-2.8-2.3c0-1.2,1-2.2,2.9-2.2c1.3,0,2.2,0.5,2.9,1.1l-0.6,0.8c-0.5-0.6-1.3-1-2.3-1c-1.1,0-1.7,0.5-1.7,1.2
			c0,0.7,0.9,0.9,1.9,1.2c1.3,0.3,2.9,0.7,2.9,2.4c0,1.3-1,2.3-3,2.3C571,395.8,570,395.4,569.2,394.6z"/>
		<path class="st14" d="M577.5,394V389h-1.3v-1.1h1.3v-2.1h1.2v2.1h1.6v1.1h-1.6v4.8c0,0.6,0.3,1,0.8,1c0.3,0,0.7-0.1,0.8-0.3
			l0.4,0.9c-0.3,0.3-0.7,0.5-1.4,0.5C578.1,395.8,577.5,395.2,577.5,394z"/>
		<path class="st14" d="M585.7,391.8c0-2.2,1.6-4,3.8-4c2.3,0,3.7,1.8,3.7,4.1v0.3H587c0.1,1.5,1.1,2.7,2.8,2.7c0.9,0,1.8-0.4,2.4-1
			l0.6,0.8c-0.8,0.8-1.8,1.2-3.1,1.2C587.3,395.8,585.7,394.2,585.7,391.8z M589.5,388.7c-1.6,0-2.5,1.4-2.5,2.6h5.1
			C592,390.1,591.2,388.7,589.5,388.7z"/>
		<path class="st14" d="M600.4,395.6v-5.1c0-1.4-0.7-1.8-1.7-1.8c-0.9,0-1.8,0.6-2.3,1.2v5.7h-1.2v-7.7h1.2v1.1
			c0.5-0.6,1.6-1.3,2.8-1.3c1.6,0,2.5,0.8,2.5,2.5v5.4H600.4z"/>
		<path class="st14" d="M606,395.6l-3.2-7.7h1.3l2.6,6.3l2.6-6.3h1.3l-3.2,7.7H606z"/>
		<path class="st14" d="M611.6,386c0-0.4,0.4-0.8,0.8-0.8c0.4,0,0.8,0.4,0.8,0.8s-0.4,0.8-0.8,0.8C612,386.8,611.6,386.5,611.6,386z
			 M611.8,395.6v-7.7h1.2v7.7H611.8z"/>
		<path class="st14" d="M615.4,395.6v-7.7h1.2v1.2c0.6-0.8,1.5-1.4,2.6-1.4v1.2c-0.1,0-0.3,0-0.5,0c-0.7,0-1.7,0.6-2.1,1.2v5.5
			H615.4z"/>
		<path class="st14" d="M620.2,391.8c0-2.2,1.5-4,3.8-4c2.4,0,3.8,1.8,3.8,4c0,2.2-1.5,4.1-3.8,4.1
			C621.7,395.8,620.2,394,620.2,391.8z M626.6,391.8c0-1.6-0.9-3-2.6-3c-1.6,0-2.6,1.4-2.6,3c0,1.6,0.9,3,2.6,3
			C625.7,394.8,626.6,393.4,626.6,391.8z"/>
		<path class="st14" d="M635.1,395.6v-5.1c0-1.4-0.7-1.8-1.7-1.8c-0.9,0-1.8,0.6-2.3,1.2v5.7h-1.2v-7.7h1.2v1.1
			c0.5-0.6,1.6-1.3,2.8-1.3c1.6,0,2.5,0.8,2.5,2.5v5.4H635.1z"/>
		<path class="st14" d="M648,395.6v-5.2c0-1-0.4-1.6-1.4-1.6c-0.8,0-1.6,0.6-2,1.2v5.7h-1.2v-5.2c0-1-0.4-1.6-1.4-1.6
			c-0.8,0-1.6,0.6-2,1.2v5.7h-1.2v-7.7h1.2v1.1c0.3-0.5,1.4-1.3,2.5-1.3c1.2,0,1.9,0.6,2.1,1.4c0.4-0.7,1.5-1.4,2.6-1.4
			c1.4,0,2.2,0.8,2.2,2.3v5.6H648z"/>
		<path class="st14" d="M651.1,391.8c0-2.2,1.6-4,3.8-4c2.3,0,3.7,1.8,3.7,4.1v0.3h-6.3c0.1,1.5,1.1,2.7,2.8,2.7
			c0.9,0,1.8-0.4,2.4-1l0.6,0.8c-0.8,0.8-1.8,1.2-3.1,1.2C652.8,395.8,651.1,394.2,651.1,391.8z M654.9,388.7
			c-1.6,0-2.5,1.4-2.5,2.6h5.1C657.5,390.1,656.7,388.7,654.9,388.7z"/>
		<path class="st14" d="M665.8,395.6v-5.1c0-1.4-0.7-1.8-1.7-1.8c-0.9,0-1.8,0.6-2.3,1.2v5.7h-1.2v-7.7h1.2v1.1
			c0.5-0.6,1.6-1.3,2.8-1.3c1.6,0,2.5,0.8,2.5,2.5v5.4H665.8z"/>
		<path class="st14" d="M669.6,394V389h-1.3v-1.1h1.3v-2.1h1.2v2.1h1.6v1.1h-1.6v4.8c0,0.6,0.3,1,0.8,1c0.3,0,0.7-0.1,0.8-0.3
			l0.4,0.9c-0.3,0.3-0.7,0.5-1.4,0.5C670.2,395.8,669.6,395.2,669.6,394z"/>
	</g>
	<g class="st1">
		<path class="st14" d="M844,395.6V385h4.3c2.1,0,3.3,1.5,3.3,3.2s-1.2,3.2-3.3,3.2h-3v4.2H844z M850.2,388.2c0-1.2-0.9-2-2.1-2
			h-2.8v4.1h2.8C849.4,390.2,850.2,389.4,850.2,388.2z"/>
		<path class="st14" d="M853.3,395.6v-7.7h1.2v1.2c0.6-0.8,1.5-1.4,2.6-1.4v1.2c-0.1,0-0.3,0-0.5,0c-0.7,0-1.7,0.6-2.1,1.2v5.5
			H853.3z"/>
		<path class="st14" d="M858.2,391.8c0-2.2,1.5-4,3.8-4c2.4,0,3.8,1.8,3.8,4c0,2.2-1.5,4.1-3.8,4.1
			C859.6,395.8,858.2,394,858.2,391.8z M864.5,391.8c0-1.6-0.9-3-2.6-3c-1.6,0-2.6,1.4-2.6,3c0,1.6,0.9,3,2.6,3
			C863.6,394.8,864.5,393.4,864.5,391.8z"/>
		<path class="st14" d="M868,394V389h-1.3v-1.1h1.3v-2.1h1.2v2.1h1.6v1.1h-1.6v4.8c0,0.6,0.3,1,0.8,1c0.3,0,0.7-0.1,0.8-0.3l0.4,0.9
			c-0.3,0.3-0.7,0.5-1.4,0.5C868.6,395.8,868,395.2,868,394z"/>
		<path class="st14" d="M872,391.8c0-2.2,1.6-4,3.8-4c2.3,0,3.7,1.8,3.7,4.1v0.3h-6.3c0.1,1.5,1.1,2.7,2.8,2.7c0.9,0,1.8-0.4,2.4-1
			l0.6,0.8c-0.8,0.8-1.8,1.2-3.1,1.2C873.7,395.8,872,394.2,872,391.8z M875.8,388.7c-1.6,0-2.5,1.4-2.5,2.6h5.1
			C878.3,390.1,877.6,388.7,875.8,388.7z"/>
		<path class="st14" d="M881,391.8c0-2.3,1.6-4,3.9-4c1.4,0,2.2,0.6,2.8,1.3l-0.8,0.7c-0.5-0.7-1.2-1-2-1c-1.6,0-2.7,1.3-2.7,3
			c0,1.7,1,3,2.7,3c0.8,0,1.5-0.3,2-1l0.8,0.7c-0.6,0.8-1.4,1.3-2.8,1.3C882.6,395.8,881,394.1,881,391.8z"/>
		<path class="st14" d="M889.6,394V389h-1.3v-1.1h1.3v-2.1h1.2v2.1h1.6v1.1h-1.6v4.8c0,0.6,0.3,1,0.8,1c0.3,0,0.7-0.1,0.8-0.3
			l0.4,0.9c-0.3,0.3-0.7,0.5-1.4,0.5C890.2,395.8,889.6,395.2,889.6,394z"/>
		<path class="st14" d="M903.1,395.6v-0.9c-0.6,0.7-1.5,1.1-2.6,1.1c-1.3,0-2.7-0.9-2.7-2.6c0-1.7,1.4-2.5,2.7-2.5
			c1.1,0,1.9,0.3,2.6,1.1v-1.4c0-1-0.8-1.6-2-1.6c-0.9,0-1.7,0.3-2.4,1.1l-0.6-0.8c0.8-0.9,1.8-1.3,3.1-1.3c1.6,0,3,0.7,3,2.6v5.3
			H903.1z M903.1,394v-1.5c-0.5-0.6-1.3-1-2.1-1c-1.1,0-1.9,0.7-1.9,1.7c0,1,0.8,1.7,1.9,1.7C901.8,395,902.6,394.6,903.1,394z"/>
		<path class="st14" d="M911.9,395.6v-5.1c0-1.4-0.7-1.8-1.7-1.8c-0.9,0-1.8,0.6-2.3,1.2v5.7h-1.2v-7.7h1.2v1.1
			c0.5-0.6,1.6-1.3,2.8-1.3c1.6,0,2.5,0.8,2.5,2.5v5.4H911.9z"/>
		<path class="st14" d="M921.1,395.6v-1.2c-0.6,0.8-1.5,1.3-2.6,1.3c-2,0-3.4-1.5-3.4-4c0-2.5,1.4-4.1,3.4-4.1c1,0,2,0.5,2.6,1.4
			V385h1.2v10.7H921.1z M921.1,393.5V390c-0.4-0.7-1.4-1.2-2.3-1.2c-1.6,0-2.5,1.3-2.5,3s0.9,3,2.5,3
			C919.7,394.8,920.6,394.2,921.1,393.5z"/>
		<path class="st14" d="M934,395.6v-5.1c0-1.4-0.7-1.8-1.7-1.8c-0.9,0-1.8,0.6-2.3,1.2v5.7h-1.2V385h1.2v4.1
			c0.5-0.6,1.6-1.3,2.8-1.3c1.6,0,2.5,0.8,2.5,2.5v5.5H934z"/>
		<path class="st14" d="M937.4,397.6c0.2,0.1,0.5,0.1,0.7,0.1c0.5,0,0.9-0.2,1.2-0.8l0.5-1.2l-3.2-7.8h1.3l2.6,6.3l2.6-6.3h1.3
			l-3.9,9.3c-0.5,1.1-1.2,1.6-2.3,1.6c-0.3,0-0.7,0-0.9-0.1L937.4,397.6z"/>
		<path class="st14" d="M951.1,395.6v-1.2c-0.6,0.8-1.5,1.3-2.6,1.3c-2,0-3.4-1.5-3.4-4c0-2.5,1.4-4.1,3.4-4.1c1,0,2,0.5,2.6,1.4
			V385h1.2v10.7H951.1z M951.1,393.5V390c-0.4-0.7-1.4-1.2-2.3-1.2c-1.6,0-2.5,1.3-2.5,3s0.9,3,2.5,3
			C949.7,394.8,950.6,394.2,951.1,393.5z"/>
		<path class="st14" d="M954.7,395.6v-7.7h1.2v1.2c0.6-0.8,1.5-1.4,2.6-1.4v1.2c-0.1,0-0.3,0-0.5,0c-0.7,0-1.7,0.6-2.1,1.2v5.5
			H954.7z"/>
		<path class="st14" d="M964.8,395.6v-0.9c-0.6,0.7-1.5,1.1-2.6,1.1c-1.3,0-2.7-0.9-2.7-2.6c0-1.7,1.4-2.5,2.7-2.5
			c1.1,0,1.9,0.3,2.6,1.1v-1.4c0-1-0.8-1.6-2-1.6c-0.9,0-1.7,0.3-2.4,1.1l-0.6-0.8c0.8-0.9,1.8-1.3,3.1-1.3c1.6,0,3,0.7,3,2.6v5.3
			H964.8z M964.8,394v-1.5c-0.5-0.6-1.3-1-2.1-1c-1.1,0-1.9,0.7-1.9,1.7c0,1,0.8,1.7,1.9,1.7C963.5,395,964.3,394.6,964.8,394z"/>
		<path class="st14" d="M968.6,394V389h-1.3v-1.1h1.3v-2.1h1.2v2.1h1.6v1.1h-1.6v4.8c0,0.6,0.3,1,0.8,1c0.3,0,0.7-0.1,0.8-0.3
			l0.4,0.9c-0.3,0.3-0.7,0.5-1.4,0.5C969.2,395.8,968.6,395.2,968.6,394z"/>
		<path class="st14" d="M972.6,391.8c0-2.2,1.6-4,3.8-4c2.3,0,3.7,1.8,3.7,4.1v0.3h-6.3c0.1,1.5,1.1,2.7,2.8,2.7
			c0.9,0,1.8-0.4,2.4-1l0.6,0.8c-0.8,0.8-1.8,1.2-3.1,1.2C974.3,395.8,972.6,394.2,972.6,391.8z M976.4,388.7
			c-1.6,0-2.5,1.4-2.5,2.6h5.1C979,390.1,978.2,388.7,976.4,388.7z"/>
	</g>
	<g class="st1">
		<path class="st14" d="M19.9,371.6v-10.7h3.6c3.3,0,5.5,2.3,5.5,5.3c0,3-2.2,5.3-5.5,5.3H19.9z M27.7,366.3c0-2.3-1.5-4.2-4.1-4.2
			h-2.3v8.3h2.3C26.2,370.4,27.7,368.6,27.7,366.3z"/>
		<path class="st14" d="M31.1,371.6v-7.7h1.2v1.2c0.6-0.8,1.5-1.4,2.6-1.4v1.2c-0.1,0-0.3,0-0.5,0c-0.7,0-1.7,0.6-2.1,1.2v5.5H31.1z
			"/>
		<path class="st14" d="M36.1,373.6c0.2,0.1,0.5,0.1,0.7,0.1c0.5,0,0.9-0.2,1.2-0.8l0.5-1.2l-3.2-7.8h1.3l2.6,6.3l2.6-6.3H43
			l-3.9,9.3c-0.5,1.1-1.2,1.6-2.3,1.6c-0.3,0-0.7,0-0.9-0.1L36.1,373.6z"/>
	</g>
	<line class="st13" x1="59" y1="256.7" x2="1083" y2="256.7"/>
	<g class="st1">
		<path class="st14" d="M15.5,260.6v-8.8l-3.6,8.8h-0.5l-3.6-8.8v8.8H6.4v-10.7h1.9l3.3,8l3.3-8h1.9v10.7H15.5z"/>
		<path class="st14" d="M18.9,256.8c0-2.2,1.5-4,3.8-4c2.4,0,3.8,1.8,3.8,4c0,2.2-1.5,4.1-3.8,4.1C20.3,260.8,18.9,259,18.9,256.8z
			 M25.2,256.8c0-1.6-0.9-3-2.6-3c-1.6,0-2.6,1.4-2.6,3c0,1.6,0.9,3,2.6,3C24.3,259.7,25.2,258.3,25.2,256.8z"/>
		<path class="st14" d="M28.2,251c0-0.4,0.4-0.8,0.8-0.8c0.4,0,0.8,0.4,0.8,0.8s-0.4,0.8-0.8,0.8C28.6,251.8,28.2,251.4,28.2,251z
			 M28.5,260.6v-7.7h1.2v7.7H28.5z"/>
		<path class="st14" d="M31.4,259.6l0.6-0.9c0.5,0.6,1.5,1.1,2.5,1.1c1.2,0,1.8-0.6,1.8-1.3c0-0.8-0.9-1.1-2-1.3
			c-1.3-0.3-2.8-0.7-2.8-2.3c0-1.2,1-2.2,2.9-2.2c1.3,0,2.2,0.5,2.9,1.1l-0.6,0.8c-0.5-0.6-1.3-1-2.3-1c-1.1,0-1.7,0.5-1.7,1.2
			c0,0.7,0.9,0.9,1.9,1.2c1.3,0.3,2.9,0.7,2.9,2.4c0,1.3-1,2.3-3,2.3C33.2,260.8,32.2,260.4,31.4,259.6z"/>
		<path class="st14" d="M39.7,259V254h-1.3v-1.1h1.3v-2.1h1.2v2.1h1.6v1.1h-1.6v4.8c0,0.6,0.3,1,0.8,1c0.3,0,0.7-0.1,0.8-0.3
			l0.4,0.9c-0.3,0.3-0.7,0.5-1.4,0.5C40.3,260.8,39.7,260.2,39.7,259z"/>
	</g>
	<g class="st1">
		<defs>
			<rect id="SVGID_11_" x="-228" y="-465.6" width="1598" height="1177.6"/>
		</defs>
		<clipPath id="SVGID_12_">
			<use xlink:href="#SVGID_11_"  style="overflow:visible;"/>
		</clipPath>
		<path class="st15" d="M59,366.7c61.5-20.5,112.2-69.4,144.5-124.5c48.7-82.9,74.6-227.5,196.7-227.5h0.2
			c68.6,0,106.8,45.6,135.8,100.2C622.7,284.3,746.6,366.7,939,366.7h143.7"/>
		<rect x="116.8" y="79.1" class="st16" width="221.2" height="56.7"/>
	</g>
	<g class="st1">
		<path class="st17" d="M189.8,112.4V99.1h4.3c4.1,0,6.7,3,6.7,6.7c0,3.7-2.6,6.7-6.7,6.7H189.8z M199.6,105.8c0-3.1-2-5.6-5.5-5.6
			h-3.1v11.3h3.1C197.5,111.4,199.6,108.9,199.6,105.8z"/>
		<path class="st17" d="M203,107.6c0-2.8,2-5.1,4.7-5.1c2.9,0,4.6,2.3,4.6,5.1v0.3h-8.1c0.1,2.1,1.5,3.8,3.8,3.8
			c1.2,0,2.3-0.5,3.2-1.3l0.5,0.7c-1,1-2.2,1.6-3.8,1.6C205,112.7,203,110.6,203,107.6z M207.6,103.4c-2.3,0-3.4,2-3.5,3.7h7
			C211.1,105.5,210.1,103.4,207.6,103.4z"/>
		<path class="st17" d="M214.9,112.4V99.1h1v5.2c0.8-1.1,2-1.8,3.4-1.8c2.6,0,4.3,2,4.3,5.1c0,3.1-1.8,5.1-4.3,5.1
			c-1.4,0-2.7-0.8-3.4-1.8v1.5H214.9z M219.1,111.7c2.2,0,3.4-1.8,3.4-4.1c0-2.3-1.2-4.1-3.4-4.1c-1.3,0-2.6,0.8-3.2,1.8v4.8
			C216.5,110.9,217.8,111.7,219.1,111.7z"/>
		<path class="st17" d="M226.3,112.4v-9.7h1v1.7c0.8-1.1,1.9-1.9,3.3-1.9v1.1c-0.2,0-0.3,0-0.5,0c-1,0-2.3,0.9-2.7,1.7v7H226.3z"/>
		<path class="st17" d="M232.4,100.4c0-0.4,0.4-0.8,0.8-0.8c0.4,0,0.8,0.3,0.8,0.8c0,0.4-0.4,0.8-0.8,0.8
			C232.8,101.2,232.4,100.9,232.4,100.4z M232.7,112.4v-9.7h1v9.7H232.7z"/>
		<path class="st17" d="M236.1,111.1l0.6-0.8c0.6,0.8,1.8,1.4,3.1,1.4c1.6,0,2.6-0.8,2.6-2c0-1.2-1.3-1.6-2.7-1.9
			c-1.6-0.4-3.4-0.8-3.4-2.7c0-1.5,1.3-2.7,3.4-2.7c1.7,0,2.8,0.6,3.5,1.4l-0.6,0.7c-0.6-0.8-1.6-1.3-2.9-1.3
			c-1.5,0-2.4,0.8-2.4,1.8c0,1.1,1.2,1.4,2.6,1.7c1.7,0.4,3.5,0.9,3.5,2.9c0,1.6-1.2,2.8-3.6,2.8
			C238.3,112.7,237.1,112.2,236.1,111.1z"/>
		<path class="st17" d="M245.6,107.6c0-2.8,1.8-5.1,4.6-5.1c2.9,0,4.7,2.2,4.7,5.1c0,2.8-1.8,5.1-4.7,5.1
			C247.4,112.7,245.6,110.4,245.6,107.6z M253.7,107.6c0-2.1-1.3-4.1-3.5-4.1c-2.2,0-3.5,2-3.5,4.1c0,2.2,1.3,4.1,3.5,4.1
			C252.5,111.7,253.7,109.7,253.7,107.6z"/>
		<path class="st17" d="M257.9,112.4v-8.7h-1.6v-0.9h1.6v-0.9c0-1.9,1-3,2.6-3c0.5,0,0.9,0.1,1.3,0.3l-0.3,0.8
			c-0.2-0.1-0.5-0.2-0.9-0.2c-1.1,0-1.7,0.8-1.7,2.1v0.9h2v0.9h-2v8.7H257.9z"/>
		<path class="st17" d="M263,110.6v-6.9h-1.6v-0.9h1.6v-2.6h1.1v2.6h2v0.9h-2v6.7c0,0.8,0.3,1.3,1,1.3c0.5,0,0.9-0.2,1.1-0.5
			l0.4,0.8c-0.4,0.4-0.8,0.6-1.6,0.6C263.7,112.7,263,111.9,263,110.6z"/>
	</g>
	<g class="st1">
		<defs>
			<rect id="SVGID_13_" x="-228" y="-465.6" width="1598" height="1177.6"/>
		</defs>
		<clipPath id="SVGID_14_">
			<use xlink:href="#SVGID_13_"  style="overflow:visible;"/>
		</clipPath>
		<polygon class="st18" points="229.6,162.5 245,135.8 214.2,135.8 229.6,162.5 245,135.8 214.2,135.8 		"/>
		<circle class="st19" cx="229.6" cy="187.5" r="10.8"/>
	</g>
</g>
</svg>
